# xmcd
# 
# Track frame offsets:
#     150
#     10802
#     23439
#     35338
#     48351
#     61036
#     78055
#     89581
#     102250
#     119739
#     131722
#     148119
#     161559
#     171281
#     183335
#     198989
#     209915
#     221595
#     231965
#     241929
# 
# Disc length: 3370
# 
# Revision: 4
# Processed by: cddbd v1.5.2PL0 Copyright (c) Steve Scherf et al.
# Submitted via: fre:ac v1.0.17
# 
DISCID=170d2814
DTITLE=Various Artist - Blues Giants, The Essential Songbook [CD1)
DYEAR=0
DGENRE=Blues
TTITLE0=B.B. King - Recession Blues
TTITLE1=Muddy Waters - (I'm Your) Hoochie Choochie Man
TTITLE2=John Lee Hooker - Boom Boom
TTITLE3=Elmore James - Dust My Broom
TTITLE4=Jimmy Reed - Shame, Shame, Shame
TTITLE5=Howlin' Wolf - Little Red Rooster
TTITLE6=Sonny Boy Williamson - Don't Start Me Talking
TTITLE7=Tommy Tucker - Hi-heel Sneakers
TTITLE8=Muddy Waters - Mannish Boy
TTITLE9=Little Walter - My Babe
TTITLE10=Bo Diddley - Mona
TTITLE11=Albert King - Bad Luck Blues
TTITLE12=John Mayall and The Bluesbreakers - I'm Your Witch Doctor
TTITLE13=Howlin' Wolf - Ain't Superstitious
TTITLE14=Memphis Slim - Forty Four Blues
TTITLE15=John Lee Hooker - Baby, Please Don't Go
TTITLE16=Koko Taylor - I'm a Little Mixed Up
TTITLE17=Howlin' Wolf - Somebody In My Home
TTITLE18=John Lee Hooker - Dimples
TTITLE19=Screamin' Jay Hawkins - I Put A Spell On You
EXTD=
EXTT0=
EXTT1=
EXTT2=
EXTT3=
EXTT4=
EXTT5=
EXTT6=
EXTT7=
EXTT8=
EXTT9=
EXTT10=
EXTT11=
EXTT12=
EXTT13=
EXTT14=
EXTT15=
EXTT16=
EXTT17=
EXTT18=
EXTT19=
PLAYORDER=
